<svg id="Grupo_5876" data-name="Grupo 5876" xmlns="http://www.w3.org/2000/svg" width="33.04" height="33.041" viewBox="0 0 33.04 33.041">
  <g id="Trazado_4767" data-name="Trazado 4767" fill="none">
    <path d="M16.52,0a16.522,16.522,0,0,1,2.2,32.9,15.693,15.693,0,0,1-2.2.146A16.52,16.52,0,0,1,16.52,0Z" stroke="none"/>
    <path d="M 16.52008247375488 2.499996185302734 C 12.77519226074219 2.499996185302734 9.254451751708984 3.958375930786133 6.606412887573242 6.606475830078125 C 3.958353042602539 9.254594802856445 2.500001907348633 12.77545547485352 2.500001907348633 16.52047538757324 C 2.500001907348633 20.2654857635498 3.958353042602539 23.78634643554688 6.606412887573242 26.4344654083252 C 9.254451751708984 29.08256530761719 12.77519226074219 30.54094505310059 16.52008247375488 30.54094505310059 C 17.30714225769043 30.54094505310059 17.99404144287109 30.4781551361084 18.34311294555664 30.42439460754395 L 18.35369110107422 30.42278480529785 C 21.75836181640625 29.91328620910645 24.85947227478027 28.23720550537109 27.08578300476074 25.70329475402832 C 29.3133716583252 23.16791534423828 30.54016304016113 19.90673446655273 30.54016304016113 16.52047538757324 C 30.54016304016113 12.77545547485352 29.08181190490723 9.254594802856445 26.43375205993652 6.606475830078125 C 23.78571319580078 3.958375930786133 20.26497268676758 2.499996185302734 16.52008247375488 2.499996185302734 M 16.52008247375488 -3.814697265625e-06 C 25.64387130737305 -3.814697265625e-06 33.0401611328125 7.396465301513672 33.0401611328125 16.52047538757324 C 33.0401611328125 24.80507659912109 26.94219207763672 31.66537475585938 18.72369384765625 32.89525604248047 C 18.18424224853516 32.97834396362305 17.35947227478027 33.04094696044922 16.52008247375488 33.04094696044922 C 7.396291732788086 33.04094696044922 3.814697265625e-06 25.64447593688965 3.814697265625e-06 16.52047538757324 C 3.814697265625e-06 7.396465301513672 7.396291732788086 -3.814697265625e-06 16.52008247375488 -3.814697265625e-06 Z" stroke="none" fill="#fff"/>
  </g>
  <path id="Trazado_237" data-name="Trazado 237" d="M377.949,549.681v-1.62a.853.853,0,0,1,.894-.961h2.26v-3.458h-3.121a3.917,3.917,0,0,0-4.234,4.217v1.822h-2.007v4.031h2.024v10.07H377.8v-10.07h2.986l.135-1.585.236-2.446Z" transform="translate(-359.52 -536.793)" fill="#fff" fill-rule="evenodd"/>
</svg>
