<svg xmlns="http://www.w3.org/2000/svg" width="28.452" height="28.452" viewBox="0 0 28.452 28.452">
  <g id="Grupo_5880" data-name="Grupo 5880" transform="translate(-0.001 0)">
    <path id="Trazado_236" data-name="Trazado 236" d="M182.983,559.289a1.751,1.751,0,1,1-1.751-1.751A1.751,1.751,0,0,1,182.983,559.289Z" transform="translate(-159.408 -552.765)" fill="#fff"/>
    <path id="Trazado_235" data-name="Trazado 235" d="M122,582.8a7.285,7.285,0,1,1,7.285-7.285A7.293,7.293,0,0,1,122,582.8Zm0-12.131a4.846,4.846,0,1,0,4.846,4.846A4.851,4.851,0,0,0,122,570.668Z" transform="translate(-107.779 -561.288)" fill="#fff"/>
    <path id="Trazado_234" data-name="Trazado 234" d="M100.843,562.451H88.587a8.107,8.107,0,0,1-8.1-8.1V542.1a8.107,8.107,0,0,1,8.1-8.1h12.256a8.107,8.107,0,0,1,8.1,8.1v12.257A8.107,8.107,0,0,1,100.843,562.451ZM88.587,536.438a5.665,5.665,0,0,0-5.659,5.659v12.257a5.666,5.666,0,0,0,5.659,5.659h12.256a5.666,5.666,0,0,0,5.659-5.659V542.1a5.665,5.665,0,0,0-5.659-5.659Z" transform="translate(-80.488 -533.999)" fill="#fff"/>
  </g>
</svg>
