<svg xmlns="http://www.w3.org/2000/svg" width="30.845" height="30.819" viewBox="0 0 30.845 30.819">
  <path id="Trazado_238" data-name="Trazado 238" d="M603.081,566.822a12.739,12.739,0,0,1-7-2.091l-4.878,1.549,1.574-4.7a12.485,12.485,0,0,1-2.426-7.408,9.57,9.57,0,0,1,.078-1.213,12.731,12.731,0,0,1,25.347.233c.026.336.026.671.026.981a12.7,12.7,0,0,1-12.725,12.648Zm6.943-9.6c-.387-.18-2.194-1.084-2.529-1.213-.362-.1-.594-.181-.852.207a18,18,0,0,1-1.162,1.419c-.232.259-.438.284-.8.1a9.706,9.706,0,0,1-2.994-1.832,10.96,10.96,0,0,1-2.066-2.529c-.206-.387-.026-.568.155-.775a4.751,4.751,0,0,0,.567-.646.656.656,0,0,0,.129-.155,3.633,3.633,0,0,0,.233-.438.632.632,0,0,0-.025-.645c-.079-.181-.827-2.014-1.137-2.736-.309-.748-.619-.62-.826-.62-.232,0-.464-.026-.722-.026a1.27,1.27,0,0,0-.981.465,4.115,4.115,0,0,0-1.109,4.31,8.1,8.1,0,0,0,1.316,2.555c.18.258,2.555,4.078,6.323,5.55,3.795,1.471,3.795.981,4.466.929a3.687,3.687,0,0,0,2.5-1.755,2.94,2.94,0,0,0,.206-1.755c-.078-.129-.336-.232-.7-.413Zm8.183-3.407a15.127,15.127,0,0,0-30.227-.284,5.4,5.4,0,0,0-.026.645,15.021,15.021,0,0,0,2.169,7.769L587.387,570l8.388-2.659a15.179,15.179,0,0,0,22.457-13.164c0-.129-.025-.232-.025-.361Z" transform="translate(-587.387 -539.178)" fill="#fff" fill-rule="evenodd"/>
</svg>
