<svg xmlns="http://www.w3.org/2000/svg" width="33.041" height="33.041" viewBox="0 0 33.041 33.041">
  <g id="Grupo_5878" data-name="Grupo 5878" transform="translate(16586.107 -4969.564)">
    <path id="Trazado_4777" data-name="Trazado 4777" d="M60.263,51.621c.239-.269.436-.542.682-.773a3.743,3.743,0,0,1,2.693-1.063,6.235,6.235,0,0,1,1.693.206,3.31,3.31,0,0,1,2.35,2.472A10.36,10.36,0,0,1,68,55.294c0,2.013-.006,4.026,0,6.039,0,.188-.052.238-.238.236q-1.555-.013-3.111,0c-.183,0-.222-.055-.221-.228q.008-2.873,0-5.746a5.161,5.161,0,0,0-.167-1.426,1.6,1.6,0,0,0-1.764-1.25,1.928,1.928,0,0,0-2.026,1.924,7.186,7.186,0,0,0-.055.9c0,1.863,0,3.725,0,5.588,0,.186-.046.24-.236.239q-1.567-.014-3.134,0c-.168,0-.216-.044-.216-.213q.007-5.532,0-11.063c0-.182.06-.225.232-.223q1.488.011,2.976,0c.183,0,.23.057.226.23-.01.441,0,.882,0,1.322" transform="translate(-16628.313 4932.493)" fill="#fff"/>
    <path id="Trazado_4778" data-name="Trazado 4778" d="M33.4,56.864c0,1.825,0,3.649,0,5.473,0,.2-.05.264-.259.262-1.036-.011-2.073-.009-3.11,0-.166,0-.216-.04-.216-.212q.007-5.541,0-11.082c0-.153.037-.207.2-.206,1.052.007,2.1.009,3.155,0,.2,0,.229.076.229.25q-.008,2.759,0,5.518" transform="translate(-16607.127 4931.465)" fill="#fff"/>
    <path id="Trazado_4779" data-name="Trazado 4779" d="M32.685,26.661a2.071,2.071,0,1,1-2.067-2.06,2.077,2.077,0,0,1,2.067,2.06" transform="translate(-16606.129 4952.24)" fill="#fff"/>
    <g id="Trazado_4781" data-name="Trazado 4781" transform="translate(-16586.107 4969.564)" fill="none">
      <path d="M16.52,0a16.522,16.522,0,0,1,2.2,32.9,15.693,15.693,0,0,1-2.2.146A16.52,16.52,0,0,1,16.52,0Z" stroke="none"/>
      <path d="M 16.52008247375488 2.499996185302734 C 12.77519226074219 2.499996185302734 9.254451751708984 3.958375930786133 6.606412887573242 6.606475830078125 C 3.958353042602539 9.254594802856445 2.500001907348633 12.77545547485352 2.500001907348633 16.52047538757324 C 2.500001907348633 20.2654857635498 3.958353042602539 23.78634643554688 6.606412887573242 26.4344654083252 C 9.254451751708984 29.08256530761719 12.77519226074219 30.54094505310059 16.52008247375488 30.54094505310059 C 17.30714225769043 30.54094505310059 17.99404144287109 30.4781551361084 18.34311294555664 30.42439460754395 L 18.35369110107422 30.42278480529785 C 21.75836181640625 29.91328620910645 24.85947227478027 28.23720550537109 27.08578300476074 25.70329475402832 C 29.3133716583252 23.16791534423828 30.54016304016113 19.90673446655273 30.54016304016113 16.52047538757324 C 30.54016304016113 12.77545547485352 29.08181190490723 9.254594802856445 26.43375205993652 6.606475830078125 C 23.78571319580078 3.958375930786133 20.26497268676758 2.499996185302734 16.52008247375488 2.499996185302734 M 16.52008247375488 -3.814697265625e-06 C 25.64387130737305 -3.814697265625e-06 33.0401611328125 7.396465301513672 33.0401611328125 16.52047538757324 C 33.0401611328125 24.80507659912109 26.94219207763672 31.66537475585938 18.72369384765625 32.89525604248047 C 18.18424224853516 32.97834396362305 17.35947227478027 33.04094696044922 16.52008247375488 33.04094696044922 C 7.396291732788086 33.04094696044922 3.814697265625e-06 25.64447593688965 3.814697265625e-06 16.52047538757324 C 3.814697265625e-06 7.396465301513672 7.396291732788086 -3.814697265625e-06 16.52008247375488 -3.814697265625e-06 Z" stroke="none" fill="#fff"/>
    </g>
  </g>
</svg>
