<svg id="Grupo_5886" data-name="Grupo 5886" xmlns="http://www.w3.org/2000/svg" xmlns:xlink="http://www.w3.org/1999/xlink" width="457" height="302" viewBox="0 0 457 302">
  <defs>
    <clipPath id="clip-path">
      <rect id="Rect치ngulo_47" data-name="Rect치ngulo 47" width="457" height="302" transform="translate(732 3987)" fill="#faf8f5"/>
    </clipPath>
    <clipPath id="clip-path-2">
      <path id="Trazado_122" data-name="Trazado 122" d="M0-21.3H165V-78.232H0Z" transform="translate(0 78.232)" fill="#707070"/>
    </clipPath>
  </defs>
  <g id="Enmascarar_grupo_9" data-name="Enmascarar grupo 9" transform="translate(-732 -3987)" clip-path="url(#clip-path)">
    <rect id="Rect치ngulo_46" data-name="Rect치ngulo 46" width="457" height="302" transform="translate(732 3987)" fill="#faf8f5"/>
  </g>
  <text id="High_quality_skin_care_products_and_treatments._Our_secret_is_the_active_ingredients:_essential_oils_natural_extracts_vitamin-minerals_and_our_base_ingredient_Resveratrol_which_is_an_antioxidant_found_in_the_skin_of_red_grapes_and_red_wine." data-name="High quality skin care products and treatments. Our secret is the active ingredients: essential oils, natural extracts, vitamin-minerals and our base ingredient Resveratrol which is an antioxidant found in the skin of red grapes and red wine." transform="translate(36 154.019)" fill="#707070" font-size="14" font-family="ApexNew-Book, Apex New" letter-spacing="0.014em"><tspan x="0" y="11">High quality skin care products and treatments. Our secret is the </tspan><tspan x="0" y="31">active ingredients: essential oils, natural extracts, vitamin-</tspan><tspan x="0" y="51">minerals and our base ingredient Resveratrol which is an </tspan><tspan x="0" y="71">antioxidant found in the skin of red grapes and red wine.</tspan></text>
  <g id="Grupo_129" data-name="Grupo 129" transform="translate(36 72)" clip-path="url(#clip-path-2)">
    <g id="Grupo_128" data-name="Grupo 128" transform="translate(132.254 23.906)">
      <path id="Trazado_121" data-name="Trazado 121" d="M-.884-1.142H-.947V-3.735h-2.3V14.217h2.3V3.715A5.864,5.864,0,0,1,.3.005a5.524,5.524,0,0,1,3.87-1.772V-4.194C2.231-4.064.2-3.67-.884-1.142" transform="translate(3.245 4.194)" fill="#707070"/>
    </g>
  </g>
  <path id="Trazado_123" data-name="Trazado 123" d="M40.755-26.535h2.3V-44.4h-2.3Z" transform="translate(24.902 141.018)" fill="#707070"/>
  <g id="Grupo_131" data-name="Grupo 131" transform="translate(36 72)" clip-path="url(#clip-path-2)">
    <g id="Grupo_130" data-name="Grupo 130" transform="translate(38.423 24.166)">
      <path id="Trazado_124" data-name="Trazado 124" d="M-4.7-.38A6.338,6.338,0,0,0-8.249-1.395a7.484,7.484,0,0,0-3.641.911,9.622,9.622,0,0,0-3.052,2.749v-3.2h-2.3v17.86h2.3V10.373a23.64,23.64,0,0,1,.327-4.859A6.5,6.5,0,0,1-12.442,2.1,5.68,5.68,0,0,1-8.706.723a4.632,4.632,0,0,1,2.953.891,4.546,4.546,0,0,1,1.535,2.67A21.188,21.188,0,0,1-3.966,8.4v8.518h2.3V7.728A14.513,14.513,0,0,0-2.4,2.363,6.079,6.079,0,0,0-4.7-.38" transform="translate(17.243 1.395)" fill="#707070"/>
    </g>
  </g>
  <path id="Trazado_126" data-name="Trazado 126" d="M-2.787,0h-.286V13.291h-7.163v.286H4.787v-.286H-2.787Z" transform="translate(53.606 114.427)" fill="#707070"/>
  <g id="Grupo_146" data-name="Grupo 146" transform="translate(36 72)" clip-path="url(#clip-path-2)">
    <g id="Grupo_133" data-name="Grupo 133" transform="translate(0 2.385)">
      <path id="Trazado_127" data-name="Trazado 127" d="M-6.671-13.953,5.648-51.24H3.341l-7.3,22.12c-2.331-8.931-14.4-15.551-14.4-15.551C-14.308-31.99-5.152-29.238-4.021-28.944l-4.392,13.3c-.56,1.744-.9,2.307-1.407,2.307s-.839-.563-1.409-2.307l-10.963-35.6h-2.3l11.473,37.287c.729,2.3,1.741,2.754,3.2,2.754,1.407,0,2.42-.45,3.149-2.754" transform="translate(24.496 51.24)" fill="#707070"/>
    </g>
    <g id="Grupo_134" data-name="Grupo 134" transform="translate(20.257 10.209)">
      <path id="Trazado_128" data-name="Trazado 128" d="M0-.6A1.606,1.606,0,0,0,1.606,1,1.61,1.61,0,0,0,3.218-.6,1.613,1.613,0,0,0,1.606-2.216,1.609,1.609,0,0,0,0-.6" transform="translate(0 2.216)" fill="#707070"/>
    </g>
    <g id="Grupo_135" data-name="Grupo 135" transform="translate(28.356 17.306)">
      <path id="Trazado_129" data-name="Trazado 129" d="M-.916,0A2.445,2.445,0,0,0-3.362,2.446,2.446,2.446,0,0,0-.916,4.892,2.445,2.445,0,0,0,1.53,2.446,2.445,2.445,0,0,0-.916,0" transform="translate(3.362)" fill="#707070"/>
    </g>
    <g id="Grupo_136" data-name="Grupo 136" transform="translate(81.362 32.006)">
      <path id="Trazado_130" data-name="Trazado 130" d="M-1.144,0A3.057,3.057,0,0,0-4.2,3.059,3.057,3.057,0,0,0-1.144,6.115,3.056,3.056,0,0,0,1.913,3.059,3.056,3.056,0,0,0-1.144,0" transform="translate(4.202)" fill="#707070"/>
    </g>
    <g id="Grupo_137" data-name="Grupo 137" transform="translate(18.533 6.693)">
      <path id="Trazado_131" data-name="Trazado 131" d="M0-.44A1.174,1.174,0,0,0,1.174.734,1.174,1.174,0,0,0,2.348-.44,1.172,1.172,0,0,0,1.174-1.614,1.172,1.172,0,0,0,0-.44" transform="translate(0 1.614)" fill="#707070"/>
    </g>
    <g id="Grupo_138" data-name="Grupo 138" transform="translate(17.749 3.212)">
      <path id="Trazado_132" data-name="Trazado 132" d="M0-.33A.884.884,0,0,0,.881.551.883.883,0,0,0,1.759-.33a.88.88,0,0,0-.878-.881A.882.882,0,0,0,0-.33" transform="translate(0 1.211)" fill="#707070"/>
    </g>
    <g id="Grupo_139" data-name="Grupo 139" transform="translate(17.404 0)">
      <path id="Trazado_133" data-name="Trazado 133" d="M-.257-.515A.686.686,0,0,0,.428-1.2a.687.687,0,0,0-.685-.69.687.687,0,0,0-.686.69.686.686,0,0,0,.686.686" transform="translate(0.943 1.891)" fill="#707070"/>
    </g>
    <g id="Grupo_140" data-name="Grupo 140" transform="translate(58.222 24.166)">
      <path id="Trazado_134" data-name="Trazado 134" d="M-6.16-1.3a8.815,8.815,0,0,0-7.3-3.462,8.531,8.531,0,0,0-7.079,3.381A9.555,9.555,0,0,0-22.621,4.68a9.66,9.66,0,0,0,2.465,6.474,8.529,8.529,0,0,0,6.832,2.865,9.826,9.826,0,0,0,3.532-.6,8.763,8.763,0,0,0,2.81-1.746,10.6,10.6,0,0,0,2.2-3.021L-6.719,7.634a10.719,10.719,0,0,1-1.954,2.535,7.027,7.027,0,0,1-2.193,1.259,7.722,7.722,0,0,1-2.654.472,6.347,6.347,0,0,1-4.75-1.989,7.271,7.271,0,0,1-1.987-5.1H-4.19A9.683,9.683,0,0,0-6.16-1.3M-20.028,2.824A7.627,7.627,0,0,1-17.941-.868a6.555,6.555,0,0,1,4.52-1.69,7.128,7.128,0,0,1,3.04.672A6.341,6.341,0,0,1-8.057-.112,7.537,7.537,0,0,1-6.719,2.824Z" transform="translate(22.621 4.758)" fill="#707070"/>
    </g>
    <g id="Grupo_141" data-name="Grupo 141" transform="translate(109.678 24.166)">
      <path id="Trazado_135" data-name="Trazado 135" d="M-6.159-1.3a8.806,8.806,0,0,0-7.29-3.462,8.524,8.524,0,0,0-7.083,3.381A9.529,9.529,0,0,0-22.616,4.68a9.67,9.67,0,0,0,2.46,6.474,8.544,8.544,0,0,0,6.834,2.865,9.856,9.856,0,0,0,3.537-.6,8.721,8.721,0,0,0,2.806-1.746,10.6,10.6,0,0,0,2.2-3.021L-6.716,7.634a10.8,10.8,0,0,1-1.953,2.535,6.993,6.993,0,0,1-2.2,1.259,7.683,7.683,0,0,1-2.652.472,6.343,6.343,0,0,1-4.749-1.989,7.279,7.279,0,0,1-1.989-5.1h16.07A9.685,9.685,0,0,0-6.159-1.3M-20.024,2.824A7.616,7.616,0,0,1-17.937-.868a6.541,6.541,0,0,1,4.516-1.69,7.135,7.135,0,0,1,3.042.672A6.386,6.386,0,0,1-8.053-.112,7.568,7.568,0,0,1-6.716,2.824Z" transform="translate(22.616 4.758)" fill="#707070"/>
    </g>
    <g id="Grupo_142" data-name="Grupo 142" transform="translate(140.127 24.165)">
      <path id="Trazado_136" data-name="Trazado 136" d="M-6.112-1.4a9.041,9.041,0,0,0-3.125-2.8,8.4,8.4,0,0,0-3.982-.938A8.836,8.836,0,0,0-19.737-2.4a9.061,9.061,0,0,0-2.708,6.6,9.209,9.209,0,0,0,2.685,6.687,8.711,8.711,0,0,0,6.474,2.751,8.8,8.8,0,0,0,3.932-.886,9.868,9.868,0,0,0,3.242-2.643v3.069h2.265V-4.686H-6.112Zm-.763,9.392a6.679,6.679,0,0,1-2.6,2.575,7.189,7.189,0,0,1-3.574.949,6.8,6.8,0,0,1-3.5-.957,7.038,7.038,0,0,1-2.6-2.683,7.257,7.257,0,0,1-.966-3.606,7.26,7.26,0,0,1,.958-3.6,6.9,6.9,0,0,1,2.582-2.648,6.932,6.932,0,0,1,3.54-.942A6.753,6.753,0,0,1-8.007-.845a7.108,7.108,0,0,1,2.04,5.181,7.353,7.353,0,0,1-.907,3.655" transform="translate(22.445 5.143)" fill="#707070"/>
    </g>
    <g id="Grupo_143" data-name="Grupo 143" transform="translate(87.461 21.997)">
      <path id="Trazado_137" data-name="Trazado 137" d="M-7.587,0l-8.522,18.54c-.38.845-.541.961-.66.961s-.28-.116-.656-.955L-25.379,0H-27.86l8.446,19.718a2.5,2.5,0,0,0,2.645,1.645,2.492,2.492,0,0,0,2.6-1.639L-5.1,0Z" transform="translate(27.86)" fill="#707070"/>
    </g>
    <g id="Grupo_144" data-name="Grupo 144" transform="translate(161.292 20.064)">
      <path id="Trazado_138" data-name="Trazado 138" d="M-.837-.324c0-.619-.364-.867-1.092-.867H-3.073V1.825h.495V.521H-2.1l.779,1.3h.538L-1.623.5A.767.767,0,0,0-.837-.324M-2.578.112v-.9h.6c.43,0,.648.131.648.423,0,.342-.19.473-.62.473Z" transform="translate(3.073 1.191)" fill="#707070"/>
    </g>
    <g id="Grupo_145" data-name="Grupo 145" transform="translate(159.639 18.934)">
      <path id="Trazado_139" data-name="Trazado 139" d="M-1,0a2.627,2.627,0,0,0-2.68,2.637A2.627,2.627,0,0,0-1,5.274,2.626,2.626,0,0,0,1.678,2.637,2.627,2.627,0,0,0-1,0m0,4.807a2.074,2.074,0,0,1-2.068-2.17A2.078,2.078,0,0,1-1,.466a2.078,2.078,0,0,1,2.07,2.171A2.074,2.074,0,0,1-1,4.807" transform="translate(3.683)" fill="#707070"/>
    </g>
  </g>
  <path id="Trazado_141" data-name="Trazado 141" d="M0,0V5.562H3.543V5.044H.566V2.931H3.26V2.412H.566V.519H3.449V0Z" transform="translate(74.423 123.225)" fill="#707070"/>
  <path id="Trazado_142" data-name="Trazado 142" d="M-1.494,0-3.049,2.224-4.566,0h-.762L-3.45,2.639-5.485,5.562h.707l1.7-2.522,1.7,2.522H-.63L-2.672,2.639-.786,0Z" transform="translate(92.187 123.225)" fill="#707070"/>
  <g id="Grupo_150" data-name="Grupo 150" transform="translate(36 72)" clip-path="url(#clip-path-2)">
    <g id="Grupo_149" data-name="Grupo 149" transform="translate(64.686 51.225)">
      <path id="Trazado_143" data-name="Trazado 143" d="M-1.107-.138a2.184,2.184,0,0,0-1.34-.37H-4.065V5.054H-3.5V2.47h1.053A2.165,2.165,0,0,0-1.107,2.1,1.315,1.315,0,0,0-.616.977,1.306,1.306,0,0,0-1.107-.138m-.193,1.5a.76.76,0,0,1-.228.306,1.2,1.2,0,0,1-.42.208,2.267,2.267,0,0,1-.64.079H-3.5V.011h.912a2.361,2.361,0,0,1,.64.075,1.1,1.1,0,0,1,.42.208A.781.781,0,0,1-1.3.6a.993.993,0,0,1,.071.373,1.016,1.016,0,0,1-.071.381" transform="translate(4.065 0.508)" fill="#707070"/>
    </g>
  </g>
  <path id="Trazado_145" data-name="Trazado 145" d="M0,0V5.562H3.543V5.044H.566V2.931H3.26V2.412H.566V.519H3.449V0Z" transform="translate(113.523 123.225)" fill="#707070"/>
  <g id="Grupo_153" data-name="Grupo 153" transform="translate(36 72)" clip-path="url(#clip-path-2)">
    <g id="Grupo_152" data-name="Grupo 152" transform="translate(90.509 51.225)">
      <path id="Trazado_146" data-name="Trazado 146" d="M-1.189-.922A1.389,1.389,0,0,0-.824-1.9a1.306,1.306,0,0,0-.491-1.116,2.18,2.18,0,0,0-1.339-.37H-4.367V2.177H-3.8V-.407h.943l1.524,2.585h.691l-1.6-2.639a1.573,1.573,0,0,0,1.057-.46m-2.612,0V-2.866H-2.8a2.354,2.354,0,0,1,.64.075,1.1,1.1,0,0,1,.421.208.788.788,0,0,1,.228.31.993.993,0,0,1,.071.373,1.009,1.009,0,0,1-.071.381.764.764,0,0,1-.228.307A1.2,1.2,0,0,1-2.156-1a2.26,2.26,0,0,1-.64.079Z" transform="translate(4.367 3.385)" fill="#707070"/>
    </g>
  </g>
  <path id="Trazado_148" data-name="Trazado 148" d="M142.225-2.276h.566V-7.838h-.566Z" transform="translate(-2.729 131.063)" fill="#707070"/>
  <path id="Trazado_149" data-name="Trazado 149" d="M0,0V5.562H3.543V5.044H.566V2.931H3.26V2.412H.566V.519H3.449V0Z" transform="translate(149.897 123.225)" fill="#707070"/>
  <path id="Trazado_150" data-name="Trazado 150" d="M-1.511,0V4.713h-.016L-4.842,0h-.707V5.562h.565V.8h.016l3.316,4.761h.707V0Z" transform="translate(168.433 123.225)" fill="#707070"/>
  <g id="Grupo_157" data-name="Grupo 157" transform="translate(36 72)" clip-path="url(#clip-path-2)">
    <g id="Grupo_156" data-name="Grupo 156" transform="translate(140.946 51.084)">
      <path id="Trazado_151" data-name="Trazado 151" d="M-1.554-1.833a1.581,1.581,0,0,1-.393.255,1.827,1.827,0,0,1-.424.134,2.434,2.434,0,0,1-.436.039,2.247,2.247,0,0,1-.959-.2,2.162,2.162,0,0,1-.718-.526,2.315,2.315,0,0,1-.452-.766,2.681,2.681,0,0,1-.157-.915,2.681,2.681,0,0,1,.157-.915,2.315,2.315,0,0,1,.452-.766,2.174,2.174,0,0,1,.718-.527,2.257,2.257,0,0,1,.959-.2,1.581,1.581,0,0,1,.44.063,2.1,2.1,0,0,1,.413.164,1.755,1.755,0,0,1,.342.236,1.353,1.353,0,0,1,.235.267l.5-.369a2.1,2.1,0,0,0-.888-.676,2.827,2.827,0,0,0-1.037-.2,2.982,2.982,0,0,0-1.151.22,2.824,2.824,0,0,0-.919.609,2.8,2.8,0,0,0-.609.923,3.055,3.055,0,0,0-.22,1.171,3.055,3.055,0,0,0,.22,1.171,2.8,2.8,0,0,0,.609.923,2.824,2.824,0,0,0,.919.609,2.982,2.982,0,0,0,1.151.22,2.668,2.668,0,0,0,.656-.079,2.715,2.715,0,0,0,.577-.216A2.2,2.2,0,0,0-1.1-1.507a2.143,2.143,0,0,0,.349-.4l-.464-.33a1.869,1.869,0,0,1-.341.4" transform="translate(5.706 6.731)" fill="#707070"/>
    </g>
  </g>
  <path id="Trazado_153" data-name="Trazado 153" d="M0,0V5.562H3.543V5.044H.566V2.931H3.26V2.412H.566V.519H3.449V0Z" transform="translate(191.182 123.225)" fill="#707070"/>
</svg>
